<?xml version="1.0" encoding="utf-8"?>
<!-- Generator: Adobe Illustrator 23.0.4, SVG Export Plug-In . SVG Version: 6.00 Build 0)  -->
<svg version="1.1" xmlns="http://www.w3.org/2000/svg" xmlns:xlink="http://www.w3.org/1999/xlink" x="0px" y="0px"
	 viewBox="0 0 910 1080" style="enable-background:new 0 0 910 1080;" xml:space="preserve">
<style type="text/css">
	.st0{display:none;}
	.st1{fill:#86E1FF;}
	.st2{fill:#42BCFF;}
	.st3{fill:#225EE6;}
</style>
<g id="Layer_1" class="st0">
</g>
<g id="Layer_5">
	<path class="st1" d="M633.2,50.6c0,0-77.4,28.8-43,158.3s111.8,189,147.1,246.2s81.2,170.6,17.2,270s-322.4,179-314.7,354.9h505V0
		L633.2,50.6z"/>
</g>
<g id="Layer_3">
	<path class="st2" d="M576,0c0,0-91.7,13-96.1,69.6c-3.6,45.6,50.7,98.5,136.3,145.4s117.1,57.6,152.1,101.5
		c35,43.9,38.5,86.4,28,110.6c-10.5,24.2-94.5,69.8-96.1,139.4c-1.2,47.9-5.2,78.8,71.7,172.7s36.7,166.7,15.7,180.3
		c-21,13.6-61.2,63.6-209.7,60.6c-148.6-3-225.3,36.2-245.5,99.9h612.5V0H576z"/>
</g>
<g id="Layer_2">
	<path class="st3" d="M687.4,0c0,0-108.7,31-60.4,170.5C675.4,310.1,784,374,833.7,435.6c49.6,61.6,114,183.7,24.1,290.7
		S543.9,890.6,554.6,1080h390.2V0H687.4z"/>
</g>
</svg>
