<?xml version="1.0" encoding="iso-8859-1"?>
<!-- Generator: Adobe Illustrator 19.0.0, SVG Export Plug-In . SVG Version: 6.00 Build 0)  -->
<svg xmlns="http://www.w3.org/2000/svg" xmlns:xlink="http://www.w3.org/1999/xlink" version="1.1" id="Capa_1" x="0px" y="0px" viewBox="0 0 455 455" style="enable-background:new 0 0 455 455;" xml:space="preserve" width="512" height="512">
<g>
	<polygon style="fill:#F2EBD9;" points="455,14.999 455,269.999 385,289.999 365,359.999 0,359.999 0,14.999  "/>
	<polygon style="fill:#FF6E1D;" points="415,119.215 227.5,139.215 40,119.215 40,54.999 415,54.999  "/>
	<polygon style="fill:#FFFFFF;" points="40,119.215 40,319.999 165,319.999 175,119.215  "/>
	<polygon style="fill:#FFFFFF;" points="280,119.215 290,319.999 365,319.999 415,269.999 415,119.215  "/>
	<rect x="165" y="119.215" style="fill:#FFCC75;" width="125" height="200.784"/>
	<path style="fill:#F2484B;" d="M404.75,440.001h-21l-10-20l10-20h21c6.6,0,12,5.396,12,11.996v16   C416.75,434.597,411.35,440.001,404.75,440.001z"/>
	<polygon style="fill:#6DA8D6;" points="353.75,440.001 343.75,420.001 353.75,400.001 383.75,400.001 383.75,440.001  "/>
	<polygon style="fill:#F2EBD9;" points="38.25,420.001 86.25,400.001 96.25,420.001 86.25,440.001  "/>
	<rect x="86.25" y="400.001" style="fill:#FFCC75;" width="267.5" height="40"/>
	<polygon style="fill:#FFCC75;" points="455,269.999 365,359.999 365,269.999  "/>
</g>















</svg>
