<?xml version="1.0" encoding="iso-8859-1"?>
<!-- Generator: Adobe Illustrator 19.0.0, SVG Export Plug-In . SVG Version: 6.00 Build 0)  -->
<svg xmlns="http://www.w3.org/2000/svg" xmlns:xlink="http://www.w3.org/1999/xlink" version="1.1" id="Capa_1" x="0px" y="0px" viewBox="0 0 455 455" style="enable-background:new 0 0 455 455;" xml:space="preserve" width="512" height="512">
<g>
	<path style="fill:#F2EBD9;" d="M321.237,317.833l-8.877,36.093c-3.1,12.57-10.9,23.19-21.98,29.89   c-8.04,4.86-17.11,7.24-26.28,6.99c-3.46-0.09-6.94-0.56-10.39-1.41l-86.54-21.31c-12.57-3.09-23.18-10.9-29.88-21.98   c-6.7-11.07-8.68-24.1-5.58-36.67l8.867-36.083l29.13,7.17l-8.877,36.093c-1.17,4.79-0.42,9.75,2.13,13.97   c2.56,4.22,6.6,7.19,11.39,8.37l86.54,21.31c4.78,1.18,9.75,0.43,13.97-2.13c4.22-2.55,7.19-6.59,8.37-11.38l8.877-36.093   L321.237,317.833z"/>
	<polygon style="fill:#FFCC75;" points="15,180.119 20,256.426 435,356.138 440,75.483  "/>
	<path style="fill:#FF6E1D;" d="M455,79.176v274.5c0,8.28-6.72,15-15,15c-8.29,0-15-6.72-15-15v-274.5c0-8.29,6.71-15,15-15   C448.28,64.176,455,70.886,455,79.176z"/>
	<path style="fill:#F2EBD9;" d="M30,176.426v80c0,8.28-6.72,15-15,15c-8.29,0-15-6.72-15-15v-80c0-8.29,6.71-15,15-15   C23.28,161.426,30,168.136,30,176.426z"/>
</g>















</svg>
