<?xml version="1.0" encoding="iso-8859-1"?>
<!-- Generator: Adobe Illustrator 19.0.0, SVG Export Plug-In . SVG Version: 6.00 Build 0)  -->
<svg xmlns="http://www.w3.org/2000/svg" xmlns:xlink="http://www.w3.org/1999/xlink" version="1.1" id="Capa_1" x="0px" y="0px" viewBox="0 0 455 455" style="enable-background:new 0 0 455 455;" xml:space="preserve" width="512" height="512">
<g>
	<path style="fill:#F2484B;" d="M30,358.25v60c0,4.142,3.357,7.5,7.5,7.5s7.5-3.358,7.5-7.5v-70L30,358.25z"/>
	<path style="fill:#F2484B;" d="M410,348.25v70c0,4.142,3.357,7.5,7.5,7.5s7.5-3.358,7.5-7.5v-60L410,348.25z"/>
	<path style="fill:#6DA8D6;" d="M293.66,59.15l8.397,104.1H152.943l8.397-104.1c1.32-16.44,15.91-29.9,32.41-29.9h67.5   C277.75,29.25,292.34,42.71,293.66,59.15z"/>
	<path style="fill:#274B6D;" d="M136.25,348.25v62.5c0,4.142,3.357,7.5,7.5,7.5s7.5-3.358,7.5-7.5v-62.5H136.25z"/>
	<path style="fill:#274B6D;" d="M303.75,348.25v70c0,4.142,3.357,7.5,7.5,7.5s7.5-3.358,7.5-7.5v-70H303.75z"/>
	<polygon style="fill:#FFCC75;" points="123.75,93.25 20,93.25 20,123.25 71.875,133.25 123.75,123.25  "/>
	<rect x="20" y="123.25" style="fill:#F2EBD9;" width="103.75" height="40"/>
	<path style="fill:#FFCC75;" d="M375,55.75c-4.143,0-7.5,3.358-7.5,7.5v40h15v-40C382.5,59.108,379.143,55.75,375,55.75z"/>
	<rect x="355" y="93.25" style="fill:#F2484B;" width="40" height="60"/>
	<path style="fill:#FF6E1D;" d="M425,183.25v175H30v-175H425z"/>
	<polygon style="fill:#FFCC75;" points="455,153.25 455,183.25 425,183.25 30,183.25 0,183.25 0,153.25 153.75,153.25    301.25,153.25 355,153.25 395,153.25  "/>
	<rect x="60" y="213.25" style="fill:#FFCC75;" width="335" height="115"/>
</g>















</svg>
